<?xml version="1.0" encoding="utf-8"?>
<svg version="1.1" xmlns:xlink="http://www.w3.org/1999/xlink" width="50px" height="39px" xmlns="http://www.w3.org/2000/svg">
  <defs>
    <linearGradient gradientUnits="userSpaceOnUse" x1="25" y1="0.39" x2="25" y2="39" id="LinearGradient416">
      <stop id="Stop417" stop-color="#2274e6" offset="0" />
      <stop id="Stop418" stop-color="#589dee" offset="0.19" />
      <stop id="Stop419" stop-color="#3987fb" stop-opacity="0.996078431372549" offset="0.73" />
      <stop id="Stop420" stop-color="#000000" offset="1" />
      <stop id="Stop421" stop-color="#2274e6" offset="1" />
    </linearGradient>
  </defs>
  <g transform="matrix(1 0 0 1 -483 -258 )">
    <path d="M 20.5729166666667 22.08984375  C 20.9346064814815 21.3208705357143  21.5422453703704 20.921875  22.3958333333333 20.8928571428571  C 21.5422453703704 20.8638392857143  20.9346064814815 20.46484375  20.5729166666667 19.6958705357143  C 20.3269675925926 19.2025669642857  19.9797453703704 18.814453125  19.53125 18.5315290178571  C 19.0827546296296 18.2486049107143  18.5908564814815 18.1071428571429  18.0555555555556 18.1071428571429  C 17.2887731481482 18.1071428571429  16.6341145833333 18.3791852678571  16.0915798611111 18.9232700892857  C 15.5490451388889 19.4673549107143  15.2777777777778 20.1238839285714  15.2777777777778 20.8928571428571  C 15.2777777777778 21.7053571428571  15.5381944444444 22.3510044642857  16.0590277777778 22.8297991071429  L 16.2760416666667 23.00390625  C 16.7679398148148 23.4536830357143  17.3611111111111 23.6785714285714  18.0555555555556 23.6785714285714  C 18.5908564814815 23.6785714285714  19.0827546296296 23.537109375  19.53125 23.2541852678571  C 19.9797453703704 22.9712611607143  20.3269675925926 22.5831473214286  20.5729166666667 22.08984375  Z M 33.9084201388889 20.0767299107143  C 34.4509548611111 19.5326450892857  34.7222222222222 18.8761160714286  34.7222222222222 18.1071428571429  C 34.7222222222222 17.2946428571429  34.4618055555556 16.6489955357143  33.9409722222222 16.1702008928571  L 33.7239583333333 15.99609375  C 33.2320601851852 15.5463169642857  32.6388888888889 15.3214285714286  31.9444444444444 15.3214285714286  C 31.4091435185185 15.3214285714286  30.9172453703704 15.462890625  30.46875 15.7458147321429  C 30.0202546296296 16.0287388392857  29.6730324074074 16.4168526785714  29.4270833333333 16.91015625  C 29.0653935185185 17.6791294642857  28.4577546296296 18.078125  27.6041666666667 18.1071428571429  C 28.4577546296296 18.1361607142857  29.0653935185185 18.53515625  29.4270833333333 19.3041294642857  C 29.6730324074074 19.7974330357143  30.0202546296296 20.185546875  30.46875 20.4684709821429  C 30.9172453703704 20.7513950892857  31.4091435185185 20.8928571428571  31.9444444444444 20.8928571428571  C 32.7112268518519 20.8928571428571  33.3658854166667 20.6208147321429  33.9084201388889 20.0767299107143  Z M 25.5859375 11.6978236607143  C 25.7740162037037 12.2419084821429  25.7378472222222 12.7751116071429  25.4774305555556 13.2974330357143  C 25.2314814814815 13.8052455357143  24.8336226851852 14.1534598214286  24.2838541666667 14.3420758928571  C 23.7340856481482 14.5306919642857  23.2060185185185 14.5016741071429  22.6996527777778 14.2550223214286  C 21.802662037037 13.8052455357143  20.8333333333333 13.5803571428571  19.7916666666667 13.5803571428571  C 19.0538194444444 13.5803571428571  18.3376736111111 13.7036830357143  17.6432291666667 13.9503348214286  C 17.6866319444444 13.9503348214286  17.7553530092593 13.9467075892857  17.8493923611111 13.939453125  C 17.943431712963 13.9321986607143  18.0121527777778 13.9285714285714  18.0555555555556 13.9285714285714  C 19.3865740740741 13.9285714285714  20.6199363425926 14.2912946428571  21.7556423611111 15.0167410714286  C 22.8913483796296 15.7421875  23.7485532407407 16.70703125  24.3272569444444 17.9112723214286  C 24.5732060185185 18.43359375  24.5985243055556 18.966796875  24.4032118055556 19.5108816964286  C 24.2078993055556 20.0549665178571  23.8498263888889 20.4503348214286  23.3289930555556 20.6969866071429  C 23.0685763888889 20.8275669642857  22.7864583333333 20.8928571428571  22.4826388888889 20.8928571428571  C 22.7864583333333 20.8928571428571  23.0685763888889 20.9581473214286  23.3289930555556 21.0887276785714  C 23.8498263888889 21.3353794642857  24.2078993055556 21.7307477678571  24.4032118055556 22.2748325892857  C 24.5985243055556 22.8189174107143  24.5732060185185 23.3521205357143  24.3272569444444 23.8744419642857  C 23.7485532407407 25.0786830357143  22.8913483796296 26.0435267857143  21.7556423611111 26.7689732142857  C 20.6199363425926 27.4944196428571  19.3865740740741 27.8571428571429  18.0555555555556 27.8571428571429  L 17.9253472222222 27.8571428571429  C 17.6938657407407 27.828125  17.3755787037037 27.7991071428571  16.9704861111111 27.7700892857143  L 10.6770833333333 27.1824776785714  L 5.49045138888889 29.7940848214286  C 5.28790509259259 29.8956473214286  5.078125 29.9464285714286  4.86111111111111 29.9464285714286  C 4.28240740740741 29.9464285714286  3.87008101851852 29.6925223214286  3.62413194444444 29.1847098214286  L 0.151909722222222 22.2204241071429  C -0.00723379629629631 21.88671875  -0.0361689814814815 21.5421316964286  0.0651041666666667 21.1866629464286  C 0.166377314814815 20.8311941964286  0.376157407407408 20.5591517857143  0.694444444444444 20.3705357142857  L 5.23003472222222 17.7806919642857  L 8.44184027777778 11.9698660714286  C 8.68778935185185 9.72098214285714  9.34968171296296 7.60630580357143  10.4275173611111 5.62583705357143  C 11.5053530092593 3.64536830357143  12.9195601851852 1.9296875  14.6701388888889 0.478794642857142  C 15.1186342592593 0.116071428571424  15.6286168981482 -0.0398995535714282  16.2000868055556 0.0108816964285733  C 16.771556712963 0.0616629464285704  17.2381365740741 0.311941964285713  17.5998263888889 0.76171875  C 17.9615162037037 1.21149553571428  18.1170428240741 1.71930803571428  18.06640625 2.28515625  C 18.0157696759259 2.85100446428572  17.7662037037037 3.32254464285714  17.3177083333333 3.69977678571428  C 16.3049768518519 4.55580357142857  15.4586226851852 5.484375  14.7786458333333 6.48549107142857  C 16.5581597222222 5.26674107142857  18.4895833333333 4.53404017857143  20.5729166666667 4.28738839285714  C 21.1516203703704 4.21484375  21.6688368055556 4.35267857142857  22.1245659722222 4.70089285714286  C 22.5802951388889 5.04910714285714  22.8370949074074 5.51339285714286  22.8949652777778 6.09375  C 22.9673032407407 6.67410714285714  22.8298611111111 7.19280133928572  22.4826388888889 7.64983258928572  C 22.1354166666667 8.10686383928572  21.6724537037037 8.36439732142857  21.09375 8.42243303571428  C 19.8784722222222 8.56752232142857  18.7282986111111 8.96651785714286  17.6432291666667 9.61941964285714  C 18.3087384259259 9.47433035714285  19.0248842592593 9.40178571428572  19.7916666666667 9.40178571428572  C 21.4554398148148 9.40178571428572  23.0324074074074 9.76450892857143  24.5225694444444 10.4899553571429  C 25.0434027777778 10.7511160714286  25.3978587962963 11.1537388392857  25.5859375 11.6978236607143  Z M 45.1388888888889 9.05357142857143  C 45.7175925925926 9.05357142857143  46.1299189814815 9.30747767857143  46.3758680555556 9.81529017857143  L 49.8480902777778 16.7795758928571  C 50.0072337962963 17.11328125  50.0361689814815 17.4578683035714  49.9348958333333 17.8133370535714  C 49.8336226851852 18.1688058035714  49.6238425925926 18.4408482142857  49.3055555555556 18.6294642857143  L 44.7699652777778 21.2193080357143  L 41.5581597222222 27.0301339285714  C 41.3122106481482 29.2790178571429  40.650318287037 31.3936941964286  39.5724826388889 33.3741629464286  C 38.4946469907407 35.3546316964286  37.0804398148148 37.0703125  35.3298611111111 38.5212053571429  C 34.9537037037037 38.8404017857143  34.5124421296296 39  34.0060763888889 39  C 33.3550347222222 39  32.8197337962963 38.74609375  32.4001736111111 38.23828125  C 32.0384837962963 37.7885044642857  31.8829571759259 37.2806919642857  31.93359375 36.71484375  C 31.9842303240741 36.1489955357143  32.2337962962963 35.6774553571429  32.6822916666667 35.3002232142857  C 33.6950231481482 34.4441964285714  34.5413773148148 33.515625  35.2213541666667 32.5145089285714  C 33.4418402777778 33.7332589285714  31.5104166666667 34.4659598214286  29.4270833333333 34.7126116071429  C 29.369212962963 34.7271205357143  29.2824074074074 34.734375  29.1666666666667 34.734375  C 28.6458333333333 34.734375  28.1864872685185 34.5602678571429  27.7886284722222 34.2120535714286  C 27.3907696759259 33.8638392857143  27.1629050925926 33.4285714285714  27.1050347222222 32.90625  C 27.0326967592593 32.3258928571429  27.1701388888889 31.8071986607143  27.5173611111111 31.3501674107143  C 27.8645833333333 30.8931361607143  28.3275462962963 30.6356026785714  28.90625 30.5775669642857  C 30.1215277777778 30.4324776785714  31.2717013888889 30.0334821428571  32.3567708333333 29.3805803571429  C 31.6912615740741 29.5256696428571  30.9751157407407 29.5982142857143  30.2083333333333 29.5982142857143  C 28.5445601851852 29.5982142857143  26.9675925925926 29.2354910714286  25.4774305555556 28.5100446428571  C 24.9565972222222 28.2488839285714  24.6021412037037 27.8462611607143  24.4140625 27.3021763392857  C 24.2259837962963 26.7580915178571  24.2621527777778 26.2248883928571  24.5225694444444 25.7025669642857  C 24.7685185185185 25.1947544642857  25.1663773148148 24.8465401785714  25.7161458333333 24.6579241071429  C 26.2659143518519 24.4693080357143  26.7939814814815 24.4983258928571  27.3003472222222 24.7449776785714  C 28.197337962963 25.1947544642857  29.1666666666667 25.4196428571429  30.2083333333333 25.4196428571429  C 30.9461805555556 25.4196428571429  31.6623263888889 25.2963169642857  32.3567708333333 25.0496651785714  C 32.3133680555556 25.0496651785714  32.2446469907407 25.0532924107143  32.1506076388889 25.060546875  C 32.056568287037 25.0678013392857  31.9878472222222 25.0714285714286  31.9444444444444 25.0714285714286  C 30.6134259259259 25.0714285714286  29.3800636574074 24.7087053571429  28.2443576388889 23.9832589285714  C 27.1086516203704 23.2578125  26.2514467592593 22.29296875  25.6727430555556 21.0887276785714  C 25.4267939814815 20.56640625  25.4014756944444 20.033203125  25.5967881944444 19.4891183035714  C 25.7921006944444 18.9450334821429  26.1501736111111 18.5496651785714  26.6710069444444 18.3030133928571  C 26.9314236111111 18.1724330357143  27.2135416666667 18.1071428571429  27.5173611111111 18.1071428571429  C 27.2135416666667 18.1071428571429  26.9314236111111 18.0418526785714  26.6710069444444 17.9112723214286  C 26.1501736111111 17.6646205357143  25.7921006944444 17.2692522321429  25.5967881944444 16.7251674107143  C 25.4014756944444 16.1810825892857  25.4267939814815 15.6478794642857  25.6727430555556 15.1255580357143  C 26.2514467592593 13.9213169642857  27.1086516203704 12.9564732142857  28.2443576388889 12.2310267857143  C 29.3800636574074 11.5055803571429  30.6134259259259 11.1428571428571  31.9444444444444 11.1428571428571  L 32.0746527777778 11.1428571428571  L 32.0963541666667 11.1428571428571  C 32.298900462963 11.171875  32.6027199074074 11.2008928571429  33.0078125 11.2299107142857  L 39.3229166666667 11.8175223214286  L 44.5095486111111 9.20591517857143  C 44.7120949074074 9.10435267857143  44.921875 9.05357142857143  45.1388888888889 9.05357142857143  Z " fill-rule="nonzero" fill="url(#LinearGradient416)" stroke="none" transform="matrix(1 0 0 1 483 258 )" />
  </g>
</svg>