<?xml version="1.0" encoding="utf-8"?>
<svg version="1.1" xmlns:xlink="http://www.w3.org/1999/xlink" width="60px" height="47px" xmlns="http://www.w3.org/2000/svg">
  <g transform="matrix(1 0 0 1 -95 -331 )">
    <path d="M 27.9820627802691 35.25  L 29.8654708520179 35.25  L 33.7668161434978 31.3778409090909  L 28.6547085201794 26.3039772727273  L 24.7533632286996 30.1761363636364  L 24.7533632286996 32.0454545454545  L 27.9820627802691 32.0454545454545  L 27.9820627802691 35.25  Z M 44.6300448430493 12.3174715909091  C 45.0112107623318 11.9391571969697  45.0224215246637 11.5719696969697  44.6636771300448 11.2159090909091  C 44.304932735426 10.8598484848485  43.9349775784753 10.8709753787879  43.5538116591928 11.2492897727273  L 31.7825112107623 22.9325284090909  C 31.4013452914798 23.3108428030303  31.390134529148 23.6780303030303  31.7488789237668 24.0340909090909  C 32.1076233183857 24.3901515151515  32.4775784753363 24.3790246212121  32.8587443946188 24.0007102272727  L 44.6300448430493 12.3174715909091  Z M 46.6816143497758 30.0759943181818  C 47.1300448430493 30.2540246212121  47.3542600896861 30.5767045454545  47.3542600896861 31.0440340909091  L 47.3542600896861 37.3863636363636  C 47.3542600896861 40.0345643939394  46.4069506726457 42.2988873106061  44.512331838565 44.1793323863636  C 42.6177130044843 46.0597774621212  40.3363228699552 47  37.6681614349776 47  L 9.68609865470852 47  C 7.01793721973094 47  4.73654708520179 46.0597774621212  2.84192825112108 44.1793323863636  C 0.947309417040359 42.2988873106061  0 40.0345643939394  0 37.3863636363636  L 0 9.61363636363637  C 0 6.9654356060606  0.947309417040359 4.70111268939394  2.84192825112108 2.82066761363637  C 4.73654708520179 0.940222537878783  7.01793721973094 0  9.68609865470852 0  L 37.6681614349776 0  C 39.0807174887892 0  40.3923766816144 0.278172348484846  41.6031390134529 0.834517045454543  C 41.9394618834081 0.990293560606057  42.1412556053812 1.24621212121212  42.2085201793722 1.60227272727273  C 42.2757847533632 1.98058712121212  42.1748878923767 2.30326704545454  41.9058295964126 2.5703125  L 40.2578475336323 4.20596590909091  C 39.9439461883408 4.51751893939394  39.585201793722 4.60653409090909  39.1816143497758 4.47301136363637  C 38.6659192825112 4.33948863636363  38.1614349775785 4.27272727272727  37.6681614349776 5  L 9.68609865470852 5  C 8.20627802690583 4.27272727272727  6.93946188340807 4.79569128787878  5.88565022421525 5.84161931818182  C 4.83183856502242 6.88754734848485  4.30493273542601 8.14488636363637  5 9.61363636363637  L 5 37.3863636363636  C 4.30493273542601 38.8551136363636  4.83183856502242 40.1124526515151  5.88565022421525 41.1583806818182  C 6.93946188340807 42.2043087121212  8.20627802690583 42.7272727272727  9.68609865470852 42  L 37.6681614349776 42  C 39.1479820627803 42.7272727272727  40.414798206278 42.2043087121212  41.4686098654709 41.1583806818182  C 42.5224215246637 40.1124526515151  43.0493273542601 38.8551136363636  43.0493273542601 37.3863636363636  L 43.0493273542601 33.1803977272727  C 43.0493273542601 32.8910984848485  43.1502242152466 32.6463068181818  43.3520179372197 32.4460227272727  L 45.5044843049327 30.3096590909091  C 45.8408071748879 29.9758522727273  46.2331838565022 29.8979640151515  46.6816143497758 30.0759943181818  Z M 21.52466367713 28.8409090909091  L 44.1255605381166 6.40909090909091  L 53.8116591928251 16.0227272727273  L 31.2107623318386 38.4545454545455  L 21.52466367713 38.4545454545455  L 21.52466367713 28.8409090909091  Z M 60 8.54545454545454  C 60 9.43560606060606  59.6860986547085 10.1922348484848  59.0582959641256 10.8153409090909  L 55.9641255605381 13.8863636363636  L 46.2780269058296 4.27272727272727  L 49.372197309417 1.20170454545454  C 50 0.57859848484848  50.762331838565 0.267045454545457  51.6591928251121 0.267045454545457  C 52.5560538116592 0.267045454545457  53.3183856502242 0.57859848484848  53.9461883408072 1.20170454545454  L 59.0582959641256 6.27556818181818  C 59.6860986547085 6.89867424242424  60 7.65530303030303  60 8.54545454545454  Z " fill-rule="nonzero" fill="#2274e6" stroke="none" transform="matrix(1 0 0 1 95 331 )" />
  </g>
</svg>