<?xml version="1.0" encoding="utf-8"?>
<svg version="1.1" xmlns:xlink="http://www.w3.org/1999/xlink" width="56px" height="56px" xmlns="http://www.w3.org/2000/svg">
  <g transform="matrix(1 0 0 1 -350 -331 )">
    <path d="M 55.34375 54.783203125  C 55.20703125 49.51953125  53.087890625 44.583984375  49.341796875 40.8447265625  C 47.60546875 39.1083984375  45.6025390625 37.720703125  43.435546875 36.7158203125  C 46.5322265625 34.20703125  48.5078125 30.37890625  48.5078125 26.0859375  C 48.5078125 18.51171875  42.19140625 12.2978515625  34.6171875 12.4140625  C 27.1591796875 12.5302734375  21.150390625 18.607421875  21.150390625 26.0859375  C 21.150390625 30.37890625  23.1328125 34.20703125  26.22265625 36.7158203125  C 24.0556640625 37.720703125  22.0595703125 39.1015625  20.31640625 40.8447265625  C 16.583984375 44.583984375  14.46484375 49.51953125  14.328125 54.783203125  C 14.3212890625 55.0908203125  14.5673828125 55.34375  14.875 55.34375  L 18.703125 55.34375  C 18.9970703125 55.34375  19.2431640625 55.111328125  19.25 54.8173828125  C 19.3798828125 50.8525390625  20.986328125 47.140625  23.8095703125 44.32421875  C 26.755859375 41.3779296875  30.6728515625 39.7578125  34.8359375 39.7578125  C 38.9990234375 39.7578125  42.916015625 41.3779296875  45.8623046875 44.32421875  C 48.6787109375 47.140625  50.28515625 50.8525390625  50.421875 54.8173828125  C 50.4287109375 55.111328125  50.6748046875 55.34375  50.96875 55.34375  L 54.796875 55.34375  C 55.1044921875 55.34375  55.3505859375 55.0908203125  55.34375 54.783203125  Z M 41.029296875 32.2724609375  C 39.375 33.9267578125  37.173828125 34.8359375  34.8359375 34.8359375  C 32.498046875 34.8359375  30.296875 33.9267578125  28.6494140625 32.2724609375  C 26.974609375 30.59765625  26.05859375 28.369140625  26.0859375 25.9970703125  C 26.1064453125 23.7548828125  27.001953125 21.587890625  28.5673828125 19.9814453125  C 30.2080078125 18.2998046875  32.40234375 17.36328125  34.7470703125 17.3359375  C 37.064453125 17.3154296875  39.3134765625 18.2177734375  40.9677734375 19.837890625  C 42.6630859375 21.4990234375  43.5927734375 23.720703125  43.5927734375 26.0859375  C 43.5927734375 28.423828125  42.68359375 30.6181640625  41.029296875 32.2724609375  Z M 17.3017578125 28.4853515625  C 17.568359375 28.4169921875  17.74609375 28.1640625  17.7119140625 27.890625  C 17.650390625 27.2958984375  17.6162109375 26.6943359375  17.6162109375 26.0859375  C 17.6162109375 24.9990234375  17.71875 23.939453125  17.91015625 22.9072265625  C 17.9580078125 22.6611328125  17.828125 22.408203125  17.6025390625 22.3056640625  C 16.6728515625 21.888671875  15.818359375 21.314453125  15.080078125 20.58984375  C 13.31640625 18.8671875  12.3662109375 16.5361328125  12.4345703125 14.068359375  C 12.49609375 11.8740234375  13.3779296875 9.7890625  14.916015625 8.216796875  C 16.6044921875 6.48730468749999  18.8740234375 5.5439453125  21.287109375 5.57128906249999  C 23.4677734375 5.59179687499999  25.5732421875 6.43261718749999  27.166015625 7.9228515625  C 27.7060546875 8.42871093749999  28.1708984375 8.98925781249999  28.560546875 9.5908203125  C 28.697265625 9.802734375  28.9638671875 9.8916015625  29.1962890625 9.80957031249999  C 30.3994140625 9.392578125  31.6708984375 9.09863281249999  32.9765625 8.96191406249999  C 33.359375 8.92089843749999  33.578125 8.51074218749999  33.4072265625 8.16894531249999  C 31.185546875 3.77343749999999  26.646484375 0.738281249999995  21.396484375 0.656249999999994  C 13.8154296875 0.540039062499994  7.49902343749999 6.75390624999999  7.49902343749999 14.3212890625  C 7.49902343749999 18.6142578125  9.47460937499999 22.4423828125  12.5712890625 24.951171875  C 10.3974609375 25.9560546875  8.39453124999999 27.34375  6.65820312499999 29.080078125  C 2.91210937499999 32.8193359375  0.792968749999993 37.7548828125  0.656249999999993 43.025390625  C 0.649414062499994 43.3330078125  0.895507812499993 43.5859375  1.20312499999999 43.5859375  L 5.03808593749999 43.5859375  C 5.33203124999999 43.5859375  5.57812499999999 43.353515625  5.58496093749999 43.0595703125  C 5.71484374999999 39.0947265625  7.3212890625 35.3828125  10.14453125 32.56640625  C 12.154296875 30.556640625  14.615234375 29.162109375  17.3017578125 28.4853515625  Z " fill-rule="nonzero" fill="#2274e6" stroke="none" transform="matrix(1 0 0 1 350 331 )" />
  </g>
</svg>