<?xml version="1.0" encoding="utf-8"?>
<svg version="1.1" xmlns:xlink="http://www.w3.org/1999/xlink" width="39px" height="50px" xmlns="http://www.w3.org/2000/svg">
  <g transform="matrix(1 0 0 1 -601 -331 )">
    <path d="M 1.77272727272727 0  L 37.2272727272727 0  C 37.7073863636364 0  38.1228693181818 0.176711309523814  38.4737215909091 0.53013392857143  C 38.8245738636364 0.883556547619041  39 1.30208333333333  39 1.78571428571428  L 39 48.2142857142857  C 39 48.6979166666667  38.8245738636364 49.1164434523809  38.4737215909091 49.4698660714286  C 38.1228693181818 49.8232886904762  37.7073863636364 50  37.2272727272727 50  L 1.77272727272727 50  C 1.29261363636364 50  0.877130681818182 49.8232886904762  0.526278409090909 49.4698660714286  C 0.175426136363636 49.1164434523809  0 48.6979166666667  0 48.2142857142857  L 0 1.78571428571428  C 0 1.30208333333333  0.175426136363636 0.883556547619041  0.526278409090909 0.53013392857143  C 0.877130681818182 0.176711309523814  1.29261363636364 0  1.77272727272727 0  Z M 14.4311079545455 7.39397321428572  C 14.2649147727273 7.56138392857143  14.1818181818182 7.77529761904762  14.1818181818182 8.03571428571428  L 14.1818181818182 9.82142857142857  C 14.1818181818182 10.0818452380952  14.2649147727273 10.2957589285714  14.4311079545455 10.4631696428571  C 14.5973011363636 10.6305803571429  14.8096590909091 10.7142857142857  15.0681818181818 10.7142857142857  L 16.8409090909091 10.7142857142857  C 17.0994318181818 10.7142857142857  17.3117897727273 10.6305803571429  17.4779829545455 10.4631696428571  C 17.6441761363636 10.2957589285714  17.7272727272727 10.0818452380952  17.7272727272727 9.82142857142857  L 17.7272727272727 8.03571428571428  C 17.7272727272727 7.77529761904762  17.6441761363636 7.56138392857143  17.4779829545455 7.39397321428572  C 17.3117897727273 7.2265625  17.0994318181818 7.14285714285715  16.8409090909091 7.14285714285715  L 15.0681818181818 7.14285714285715  C 14.8096590909091 7.14285714285715  14.5973011363636 7.2265625  14.4311079545455 7.39397321428572  Z M 14.4311079545455 14.5368303571429  C 14.2649147727273 14.7042410714286  14.1818181818182 14.9181547619048  14.1818181818182 15.1785714285714  L 14.1818181818182 16.9642857142857  C 14.1818181818182 17.2247023809524  14.2649147727273 17.4386160714286  14.4311079545455 17.6060267857143  C 14.5973011363636 17.7734375  14.8096590909091 17.8571428571429  15.0681818181818 17.8571428571429  L 16.8409090909091 17.8571428571429  C 17.0994318181818 17.8571428571429  17.3117897727273 17.7734375  17.4779829545455 17.6060267857143  C 17.6441761363636 17.4386160714286  17.7272727272727 17.2247023809524  17.7272727272727 16.9642857142857  L 17.7272727272727 15.1785714285714  C 17.7272727272727 14.9181547619048  17.6441761363636 14.7042410714286  17.4779829545455 14.5368303571429  C 17.3117897727273 14.3694196428571  17.0994318181818 14.2857142857143  16.8409090909091 14.2857142857143  L 15.0681818181818 14.2857142857143  C 14.8096590909091 14.2857142857143  14.5973011363636 14.3694196428571  14.4311079545455 14.5368303571429  Z M 14.4311079545455 21.6796875  C 14.2649147727273 21.8470982142857  14.1818181818182 22.0610119047619  14.1818181818182 22.3214285714286  L 14.1818181818182 24.1071428571429  C 14.1818181818182 24.3675595238095  14.2649147727273 24.5814732142857  14.4311079545455 24.7488839285714  C 14.5973011363636 24.9162946428571  14.8096590909091 25  15.0681818181818 25  L 16.8409090909091 25  C 17.0994318181818 25  17.3117897727273 24.9162946428571  17.4779829545455 24.7488839285714  C 17.6441761363636 24.5814732142857  17.7272727272727 24.3675595238095  17.7272727272727 24.1071428571429  L 17.7272727272727 22.3214285714286  C 17.7272727272727 22.0610119047619  17.6441761363636 21.8470982142857  17.4779829545455 21.6796875  C 17.3117897727273 21.5122767857143  17.0994318181818 21.4285714285714  16.8409090909091 21.4285714285714  L 15.0681818181818 21.4285714285714  C 14.8096590909091 21.4285714285714  14.5973011363636 21.5122767857143  14.4311079545455 21.6796875  Z M 14.4311079545455 28.8225446428571  C 14.2649147727273 28.9899553571429  14.1818181818182 29.203869047619  14.1818181818182 29.4642857142857  L 14.1818181818182 31.25  C 14.1818181818182 31.5104166666667  14.2649147727273 31.7243303571429  14.4311079545455 31.8917410714286  C 14.5973011363636 32.0591517857143  14.8096590909091 32.1428571428571  15.0681818181818 32.1428571428571  L 16.8409090909091 32.1428571428571  C 17.0994318181818 32.1428571428571  17.3117897727273 32.0591517857143  17.4779829545455 31.8917410714286  C 17.6441761363636 31.7243303571429  17.7272727272727 31.5104166666667  17.7272727272727 31.25  L 17.7272727272727 29.4642857142857  C 17.7272727272727 29.203869047619  17.6441761363636 28.9899553571429  17.4779829545455 28.8225446428571  C 17.3117897727273 28.6551339285714  17.0994318181818 28.5714285714286  16.8409090909091 28.5714285714286  L 15.0681818181818 28.5714285714286  C 14.8096590909091 28.5714285714286  14.5973011363636 28.6551339285714  14.4311079545455 28.8225446428571  Z M 10.3870738636364 39.0345982142857  C 10.5532670454545 38.8671875  10.6363636363636 38.6532738095238  10.6363636363636 38.3928571428571  L 10.6363636363636 36.6071428571429  C 10.6363636363636 36.3467261904762  10.5532670454545 36.1328125  10.3870738636364 35.9654017857143  C 10.2208806818182 35.7979910714286  10.0085227272727 35.7142857142857  9.75 35.7142857142857  L 7.97727272727273 35.7142857142857  C 7.71875 35.7142857142857  7.50639204545455 35.7979910714286  7.34019886363636 35.9654017857143  C 7.17400568181818 36.1328125  7.09090909090909 36.3467261904762  7.09090909090909 36.6071428571429  L 7.09090909090909 38.3928571428571  C 7.09090909090909 38.6532738095238  7.17400568181818 38.8671875  7.34019886363636 39.0345982142857  C 7.50639204545455 39.2020089285714  7.71875 39.2857142857143  7.97727272727273 39.2857142857143  L 9.75 39.2857142857143  C 10.0085227272727 39.2857142857143  10.2208806818182 39.2020089285714  10.3870738636364 39.0345982142857  Z M 10.3870738636364 31.8917410714286  C 10.5532670454545 31.7243303571429  10.6363636363636 31.5104166666667  10.6363636363636 31.25  L 10.6363636363636 29.4642857142857  C 10.6363636363636 29.203869047619  10.5532670454545 28.9899553571429  10.3870738636364 28.8225446428571  C 10.2208806818182 28.6551339285714  10.0085227272727 28.5714285714286  9.75 28.5714285714286  L 7.97727272727273 28.5714285714286  C 7.71875 28.5714285714286  7.50639204545455 28.6551339285714  7.34019886363636 28.8225446428571  C 7.17400568181818 28.9899553571429  7.09090909090909 29.203869047619  7.09090909090909 29.4642857142857  L 7.09090909090909 31.25  C 7.09090909090909 31.5104166666667  7.17400568181818 31.7243303571429  7.34019886363636 31.8917410714286  C 7.50639204545455 32.0591517857143  7.71875 32.1428571428571  7.97727272727273 32.1428571428571  L 9.75 32.1428571428571  C 10.0085227272727 32.1428571428571  10.2208806818182 32.0591517857143  10.3870738636364 31.8917410714286  Z M 10.3870738636364 24.7488839285714  C 10.5532670454545 24.5814732142857  10.6363636363636 24.3675595238095  10.6363636363636 24.1071428571429  L 10.6363636363636 22.3214285714286  C 10.6363636363636 22.0610119047619  10.5532670454545 21.8470982142857  10.3870738636364 21.6796875  C 10.2208806818182 21.5122767857143  10.0085227272727 21.4285714285714  9.75 21.4285714285714  L 7.97727272727273 21.4285714285714  C 7.71875 21.4285714285714  7.50639204545455 21.5122767857143  7.34019886363636 21.6796875  C 7.17400568181818 21.8470982142857  7.09090909090909 22.0610119047619  7.09090909090909 22.3214285714286  L 7.09090909090909 24.1071428571429  C 7.09090909090909 24.3675595238095  7.17400568181818 24.5814732142857  7.34019886363636 24.7488839285714  C 7.50639204545455 24.9162946428571  7.71875 25  7.97727272727273 25  L 9.75 25  C 10.0085227272727 25  10.2208806818182 24.9162946428571  10.3870738636364 24.7488839285714  Z M 10.3870738636364 17.6060267857143  C 10.5532670454545 17.4386160714286  10.6363636363636 17.2247023809524  10.6363636363636 16.9642857142857  L 10.6363636363636 15.1785714285714  C 10.6363636363636 14.9181547619048  10.5532670454545 14.7042410714286  10.3870738636364 14.5368303571429  C 10.2208806818182 14.3694196428571  10.0085227272727 14.2857142857143  9.75 14.2857142857143  L 7.97727272727273 14.2857142857143  C 7.71875 14.2857142857143  7.50639204545455 14.3694196428571  7.34019886363636 14.5368303571429  C 7.17400568181818 14.7042410714286  7.09090909090909 14.9181547619048  7.09090909090909 15.1785714285714  L 7.09090909090909 16.9642857142857  C 7.09090909090909 17.2247023809524  7.17400568181818 17.4386160714286  7.34019886363636 17.6060267857143  C 7.50639204545455 17.7734375  7.71875 17.8571428571429  7.97727272727273 17.8571428571429  L 9.75 17.8571428571429  C 10.0085227272727 17.8571428571429  10.2208806818182 17.7734375  10.3870738636364 17.6060267857143  Z M 10.3870738636364 10.4631696428571  C 10.5532670454545 10.2957589285714  10.6363636363636 10.0818452380952  10.6363636363636 9.82142857142857  L 10.6363636363636 8.03571428571428  C 10.6363636363636 7.77529761904762  10.5532670454545 7.56138392857143  10.3870738636364 7.39397321428572  C 10.2208806818182 7.2265625  10.0085227272727 7.14285714285715  9.75 7.14285714285715  L 7.97727272727273 7.14285714285715  C 7.71875 7.14285714285715  7.50639204545455 7.2265625  7.34019886363636 7.39397321428572  C 7.17400568181818 7.56138392857143  7.09090909090909 7.77529761904762  7.09090909090909 8.03571428571428  L 7.09090909090909 9.82142857142857  C 7.09090909090909 10.0818452380952  7.17400568181818 10.2957589285714  7.34019886363636 10.4631696428571  C 7.50639204545455 10.6305803571429  7.71875 10.7142857142857  7.97727272727273 10.7142857142857  L 9.75 10.7142857142857  C 10.0085227272727 10.7142857142857  10.2208806818182 10.6305803571429  10.3870738636364 10.4631696428571  Z M 24.5688920454545 46.1774553571429  C 24.7350852272727 46.0100446428571  24.8181818181818 45.7961309523809  24.8181818181818 45.5357142857143  L 24.8181818181818 40.1785714285714  C 24.8181818181818 39.9181547619048  24.7350852272727 39.7042410714286  24.5688920454545 39.5368303571429  C 24.4026988636364 39.3694196428571  24.1903409090909 39.2857142857143  23.9318181818182 39.2857142857143  L 15.0681818181818 39.2857142857143  C 14.8096590909091 39.2857142857143  14.5973011363636 39.3694196428571  14.4311079545455 39.5368303571429  C 14.2649147727273 39.7042410714286  14.1818181818182 39.9181547619048  14.1818181818182 40.1785714285714  L 14.1818181818182 45.5357142857143  C 14.1818181818182 45.7961309523809  14.2649147727273 46.0100446428571  14.4311079545455 46.1774553571429  C 14.5973011363636 46.3448660714286  14.8096590909091 46.4285714285714  15.0681818181818 46.4285714285714  L 23.9318181818182 46.4285714285714  C 24.1903409090909 46.4285714285714  24.4026988636364 46.3448660714286  24.5688920454545 46.1774553571429  Z M 24.5688920454545 31.8917410714286  C 24.7350852272727 31.7243303571429  24.8181818181818 31.5104166666667  24.8181818181818 31.25  L 24.8181818181818 29.4642857142857  C 24.8181818181818 29.203869047619  24.7350852272727 28.9899553571429  24.5688920454545 28.8225446428571  C 24.4026988636364 28.6551339285714  24.1903409090909 28.5714285714286  23.9318181818182 28.5714285714286  L 22.1590909090909 28.5714285714286  C 21.9005681818182 28.5714285714286  21.6882102272727 28.6551339285714  21.5220170454545 28.8225446428571  C 21.3558238636364 28.9899553571429  21.2727272727273 29.203869047619  21.2727272727273 29.4642857142857  L 21.2727272727273 31.25  C 21.2727272727273 31.5104166666667  21.3558238636364 31.7243303571429  21.5220170454545 31.8917410714286  C 21.6882102272727 32.0591517857143  21.9005681818182 32.1428571428571  22.1590909090909 32.1428571428571  L 23.9318181818182 32.1428571428571  C 24.1903409090909 32.1428571428571  24.4026988636364 32.0591517857143  24.5688920454545 31.8917410714286  Z M 24.5688920454545 24.7488839285714  C 24.7350852272727 24.5814732142857  24.8181818181818 24.3675595238095  24.8181818181818 24.1071428571429  L 24.8181818181818 22.3214285714286  C 24.8181818181818 22.0610119047619  24.7350852272727 21.8470982142857  24.5688920454545 21.6796875  C 24.4026988636364 21.5122767857143  24.1903409090909 21.4285714285714  23.9318181818182 21.4285714285714  L 22.1590909090909 21.4285714285714  C 21.9005681818182 21.4285714285714  21.6882102272727 21.5122767857143  21.5220170454545 21.6796875  C 21.3558238636364 21.8470982142857  21.2727272727273 22.0610119047619  21.2727272727273 22.3214285714286  L 21.2727272727273 24.1071428571429  C 21.2727272727273 24.3675595238095  21.3558238636364 24.5814732142857  21.5220170454545 24.7488839285714  C 21.6882102272727 24.9162946428571  21.9005681818182 25  22.1590909090909 25  L 23.9318181818182 25  C 24.1903409090909 25  24.4026988636364 24.9162946428571  24.5688920454545 24.7488839285714  Z M 24.5688920454545 17.6060267857143  C 24.7350852272727 17.4386160714286  24.8181818181818 17.2247023809524  24.8181818181818 16.9642857142857  L 24.8181818181818 15.1785714285714  C 24.8181818181818 14.9181547619048  24.7350852272727 14.7042410714286  24.5688920454545 14.5368303571429  C 24.4026988636364 14.3694196428571  24.1903409090909 14.2857142857143  23.9318181818182 14.2857142857143  L 22.1590909090909 14.2857142857143  C 21.9005681818182 14.2857142857143  21.6882102272727 14.3694196428571  21.5220170454545 14.5368303571429  C 21.3558238636364 14.7042410714286  21.2727272727273 14.9181547619048  21.2727272727273 15.1785714285714  L 21.2727272727273 16.9642857142857  C 21.2727272727273 17.2247023809524  21.3558238636364 17.4386160714286  21.5220170454545 17.6060267857143  C 21.6882102272727 17.7734375  21.9005681818182 17.8571428571429  22.1590909090909 17.8571428571429  L 23.9318181818182 17.8571428571429  C 24.1903409090909 17.8571428571429  24.4026988636364 17.7734375  24.5688920454545 17.6060267857143  Z M 24.5688920454545 10.4631696428571  C 24.7350852272727 10.2957589285714  24.8181818181818 10.0818452380952  24.8181818181818 9.82142857142857  L 24.8181818181818 8.03571428571428  C 24.8181818181818 7.77529761904762  24.7350852272727 7.56138392857143  24.5688920454545 7.39397321428572  C 24.4026988636364 7.2265625  24.1903409090909 7.14285714285715  23.9318181818182 7.14285714285715  L 22.1590909090909 7.14285714285715  C 21.9005681818182 7.14285714285715  21.6882102272727 7.2265625  21.5220170454545 7.39397321428572  C 21.3558238636364 7.56138392857143  21.2727272727273 7.77529761904762  21.2727272727273 8.03571428571428  L 21.2727272727273 9.82142857142857  C 21.2727272727273 10.0818452380952  21.3558238636364 10.2957589285714  21.5220170454545 10.4631696428571  C 21.6882102272727 10.6305803571429  21.9005681818182 10.7142857142857  22.1590909090909 10.7142857142857  L 23.9318181818182 10.7142857142857  C 24.1903409090909 10.7142857142857  24.4026988636364 10.6305803571429  24.5688920454545 10.4631696428571  Z M 31.6598011363636 39.0345982142857  C 31.8259943181818 38.8671875  31.9090909090909 38.6532738095238  31.9090909090909 38.3928571428571  L 31.9090909090909 36.6071428571429  C 31.9090909090909 36.3467261904762  31.8259943181818 36.1328125  31.6598011363636 35.9654017857143  C 31.4936079545455 35.7979910714286  31.28125 35.7142857142857  31.0227272727273 35.7142857142857  L 29.25 35.7142857142857  C 28.9914772727273 35.7142857142857  28.7791193181818 35.7979910714286  28.6129261363636 35.9654017857143  C 28.4467329545455 36.1328125  28.3636363636364 36.3467261904762  28.3636363636364 36.6071428571429  L 28.3636363636364 38.3928571428571  C 28.3636363636364 38.6532738095238  28.4467329545455 38.8671875  28.6129261363636 39.0345982142857  C 28.7791193181818 39.2020089285714  28.9914772727273 39.2857142857143  29.25 39.2857142857143  L 31.0227272727273 39.2857142857143  C 31.28125 39.2857142857143  31.4936079545455 39.2020089285714  31.6598011363636 39.0345982142857  Z M 31.6598011363636 31.8917410714286  C 31.8259943181818 31.7243303571429  31.9090909090909 31.5104166666667  31.9090909090909 31.25  L 31.9090909090909 29.4642857142857  C 31.9090909090909 29.203869047619  31.8259943181818 28.9899553571429  31.6598011363636 28.8225446428571  C 31.4936079545455 28.6551339285714  31.28125 28.5714285714286  31.0227272727273 28.5714285714286  L 29.25 28.5714285714286  C 28.9914772727273 28.5714285714286  28.7791193181818 28.6551339285714  28.6129261363636 28.8225446428571  C 28.4467329545455 28.9899553571429  28.3636363636364 29.203869047619  28.3636363636364 29.4642857142857  L 28.3636363636364 31.25  C 28.3636363636364 31.5104166666667  28.4467329545455 31.7243303571429  28.6129261363636 31.8917410714286  C 28.7791193181818 32.0591517857143  28.9914772727273 32.1428571428571  29.25 32.1428571428571  L 31.0227272727273 32.1428571428571  C 31.28125 32.1428571428571  31.4936079545455 32.0591517857143  31.6598011363636 31.8917410714286  Z M 31.6598011363636 24.7488839285714  C 31.8259943181818 24.5814732142857  31.9090909090909 24.3675595238095  31.9090909090909 24.1071428571429  L 31.9090909090909 22.3214285714286  C 31.9090909090909 22.0610119047619  31.8259943181818 21.8470982142857  31.6598011363636 21.6796875  C 31.4936079545455 21.5122767857143  31.28125 21.4285714285714  31.0227272727273 21.4285714285714  L 29.25 21.4285714285714  C 28.9914772727273 21.4285714285714  28.7791193181818 21.5122767857143  28.6129261363636 21.6796875  C 28.4467329545455 21.8470982142857  28.3636363636364 22.0610119047619  28.3636363636364 22.3214285714286  L 28.3636363636364 24.1071428571429  C 28.3636363636364 24.3675595238095  28.4467329545455 24.5814732142857  28.6129261363636 24.7488839285714  C 28.7791193181818 24.9162946428571  28.9914772727273 25  29.25 25  L 31.0227272727273 25  C 31.28125 25  31.4936079545455 24.9162946428571  31.6598011363636 24.7488839285714  Z M 31.6598011363636 17.6060267857143  C 31.8259943181818 17.4386160714286  31.9090909090909 17.2247023809524  31.9090909090909 16.9642857142857  L 31.9090909090909 15.1785714285714  C 31.9090909090909 14.9181547619048  31.8259943181818 14.7042410714286  31.6598011363636 14.5368303571429  C 31.4936079545455 14.3694196428571  31.28125 14.2857142857143  31.0227272727273 14.2857142857143  L 29.25 14.2857142857143  C 28.9914772727273 14.2857142857143  28.7791193181818 14.3694196428571  28.6129261363636 14.5368303571429  C 28.4467329545455 14.7042410714286  28.3636363636364 14.9181547619048  28.3636363636364 15.1785714285714  L 28.3636363636364 16.9642857142857  C 28.3636363636364 17.2247023809524  28.4467329545455 17.4386160714286  28.6129261363636 17.6060267857143  C 28.7791193181818 17.7734375  28.9914772727273 17.8571428571429  29.25 17.8571428571429  L 31.0227272727273 17.8571428571429  C 31.28125 17.8571428571429  31.4936079545455 17.7734375  31.6598011363636 17.6060267857143  Z M 31.6598011363636 10.4631696428571  C 31.8259943181818 10.2957589285714  31.9090909090909 10.0818452380952  31.9090909090909 9.82142857142857  L 31.9090909090909 8.03571428571428  C 31.9090909090909 7.77529761904762  31.8259943181818 7.56138392857143  31.6598011363636 7.39397321428572  C 31.4936079545455 7.2265625  31.28125 7.14285714285715  31.0227272727273 7.14285714285715  L 29.25 7.14285714285715  C 28.9914772727273 7.14285714285715  28.7791193181818 7.2265625  28.6129261363636 7.39397321428572  C 28.4467329545455 7.56138392857143  28.3636363636364 7.77529761904762  28.3636363636364 8.03571428571428  L 28.3636363636364 9.82142857142857  C 28.3636363636364 10.0818452380952  28.4467329545455 10.2957589285714  28.6129261363636 10.4631696428571  C 28.7791193181818 10.6305803571429  28.9914772727273 10.7142857142857  29.25 10.7142857142857  L 31.0227272727273 10.7142857142857  C 31.28125 10.7142857142857  31.4936079545455 10.6305803571429  31.6598011363636 10.4631696428571  Z " fill-rule="nonzero" fill="#2274e6" stroke="none" transform="matrix(1 0 0 1 601 331 )" />
  </g>
</svg>