<?xml version="1.0" encoding="utf-8"?>
<svg version="1.1" xmlns:xlink="http://www.w3.org/1999/xlink" width="50px" height="46px" xmlns="http://www.w3.org/2000/svg">
  <g transform="matrix(1 0 0 1 -835 -331 )">
    <path d="M 6.68569711538462 19.2265625  C 8.57872596153846 20.9036458333333  10.9375 22.0316840277778  13.7620192307692 22.6106770833333  C 12.2796474358974 19.3763020833333  11.5384615384615 15.6727430555556  11.5384615384615 11.5  L 3.84615384615385 11.5  L 3.84615384615385 14.375  C 3.84615384615385 15.9322916666667  4.79266826923077 17.5494791666667  6.68569711538462 19.2265625  Z M 43.3143028846154 19.2265625  C 45.2073317307692 17.5494791666667  46.1538461538462 15.9322916666667  46.1538461538462 14.375  L 46.1538461538462 11.5  L 38.4615384615385 11.5  C 38.4615384615385 15.6727430555556  37.7203525641026 19.3763020833333  36.2379807692308 22.6106770833333  C 39.0625 22.0316840277778  41.4212740384615 20.9036458333333  43.3143028846154 19.2265625  Z M 49.1586538461538 8.50520833333334  C 49.7195512820513 9.06423611111111  50 9.74305555555555  50 10.5416666666667  L 50 14.375  C 50 15.7925347222222  49.5843349358974 17.2200520833333  48.7530048076923 18.6575520833333  C 47.9216746794872 20.0950520833333  46.7998798076923 21.3927951388889  45.3876201923077 22.55078125  C 43.9753605769231 23.7087673611111  42.2425881410256 24.6820746527778  40.1893028846154 25.470703125  C 38.1360176282051 26.2593315972222  35.9775641025641 26.7035590277778  33.7139423076923 26.8033854166667  C 32.8725961538462 27.8815104166667  31.9210737179487 28.8298611111111  30.859375 29.6484375  C 30.0981570512821 30.3272569444444  29.5723157051282 31.0509982638889  29.2818509615385 31.8196614583333  C 28.9913862179487 32.5883246527778  28.8461538461539 33.4817708333333  28.8461538461538 34.5  C 28.8461538461539 35.578125  29.1516426282051 36.4865451388889  29.7626201923077 37.2252604166667  C 30.3735977564103 37.9639756944445  31.3501602564103 38.3333333333333  32.6923076923077 38.3333333333333  C 34.1947115384615 38.3333333333333  35.5318509615385 38.7875434027778  36.7037259615385 39.6959635416667  C 37.8756009615385 40.6043836805556  38.4615384615385 41.7473958333333  38.4615384615385 43.125  L 38.4615384615385 45.0416666666667  C 38.4615384615385 45.3211805555556  38.3713942307692 45.55078125  38.1911057692308 45.73046875  C 38.0108173076923 45.91015625  37.7804487179487 46  37.5 46  L 12.5 46  C 12.2195512820513 46  11.9891826923077 45.91015625  11.8088942307692 45.73046875  C 11.6286057692308 45.55078125  11.5384615384615 45.3211805555556  11.5384615384615 45.0416666666667  L 11.5384615384615 43.125  C 11.5384615384615 41.7473958333333  12.1243990384615 40.6043836805556  13.2962740384615 39.6959635416667  C 14.4681490384615 38.7875434027778  15.8052884615385 38.3333333333333  17.3076923076923 38.3333333333333  C 18.6498397435897 38.3333333333333  19.6264022435897 37.9639756944445  20.2373798076923 37.2252604166667  C 20.8483573717949 36.4865451388889  21.1538461538462 35.578125  21.1538461538462 34.5  C 21.1538461538462 33.4817708333333  21.0086137820513 32.5883246527778  20.7181490384615 31.8196614583333  C 20.4276842948718 31.0509982638889  19.9018429487179 30.3272569444444  19.140625 29.6484375  C 18.0789262820513 28.8298611111111  17.1274038461538 27.8815104166667  16.2860576923077 26.8033854166667  C 14.0224358974359 26.7035590277778  11.8639823717949 26.2593315972222  9.81069711538462 25.470703125  C 7.75741185897436 24.6820746527778  6.02463942307692 23.7087673611111  4.61237980769231 22.55078125  C 3.20012019230769 21.3927951388889  2.07832532051282 20.0950520833333  1.24699519230769 18.6575520833333  C 0.415665064102564 17.2200520833333  0 15.7925347222222  0 14.375  L 0 10.5416666666667  C 0 9.74305555555555  0.280448717948718 9.06423611111111  0.841346153846154 8.50520833333334  C 1.40224358974359 7.94618055555555  2.08333333333333 7.66666666666667  2.88461538461538 7.66666666666667  L 11.5384615384615 7.66666666666667  L 11.5384615384615 4.79166666666667  C 11.5384615384615 3.47395833333333  12.0092147435897 2.34592013888889  12.9507211538462 1.40755208333334  C 13.8922275641026 0.469184027777773  15.0240384615385 0  16.3461538461538 0  L 33.6538461538462 0  C 34.9759615384615 0  36.1077724358974 0.469184027777773  37.0492788461538 1.40755208333334  C 37.9907852564103 2.34592013888889  38.4615384615385 3.47395833333333  38.4615384615385 4.79166666666667  L 38.4615384615385 7.66666666666667  L 47.1153846153846 7.66666666666667  C 47.9166666666667 7.66666666666667  48.5977564102564 7.94618055555555  49.1586538461538 8.50520833333334  Z " fill-rule="nonzero" fill="#2274e6" stroke="none" transform="matrix(1 0 0 1 835 331 )" />
  </g>
</svg>