<?xml version="1.0" encoding="utf-8"?>
<svg version="1.1" xmlns:xlink="http://www.w3.org/1999/xlink" width="42px" height="50px" xmlns="http://www.w3.org/2000/svg">
  <g transform="matrix(1 0 0 1 -350 -252 )">
    <path d="M 37 45.2742894910773  L 37 5  L 5 5  L 5 45.2742894910773  L 18.0796875 31.8572372769332  L 21 29.0482485128883  L 23.9203125 31.8572372769332  L 37 45.2742894910773  Z M 3.80625 0  L 38.19375 0  C 38.696875 0  39.178125 0.0991407799074695  39.6375 0.297422339722409  C 40.359375 0.583829037232864  40.93359375 1.03547036792245  41.36015625 1.65234633179114  C 41.78671875 2.26922229565983  42 2.95219211280017  42 3.70125578321216  L 42 46.2987442167878  C 42 47.0478078871998  41.78671875 47.7307777043402  41.36015625 48.3476536682089  C 40.93359375 48.9645296320776  40.359375 49.4161709627671  39.6375 49.7025776602776  C 39.221875 49.8788279356686  38.740625 49.9669530733642  38.19375 49.9669530733642  C 37.14375 49.9669530733642  36.2359375 49.6144525225821  35.4703125 48.9094514210178  L 21 34.8975545274289  L 6.5296875 48.9094514210178  C 5.7421875 49.636483807006  4.834375 50  3.80625 50  C 3.303125 50  2.821875 49.9008592200925  2.3625 49.7025776602776  C 1.640625 49.4161709627671  1.06640625 48.9645296320776  0.63984375 48.3476536682089  C 0.21328125 47.7307777043402  0 47.0478078871998  0 46.2987442167878  L 0 3.70125578321216  C 0 2.95219211280017  0.21328125 2.26922229565983  0.63984375 1.65234633179114  C 1.06640625 1.03547036792245  1.640625 0.583829037232864  2.3625 0.297422339722409  C 2.821875 0.0991407799074695  3.303125 0  3.80625 0  Z " fill-rule="nonzero" fill="#27a59a" stroke="none" transform="matrix(1 0 0 1 350 252 )" />
  </g>
</svg>