<?xml version="1.0" encoding="utf-8"?>
<svg version="1.1" xmlns:xlink="http://www.w3.org/1999/xlink" width="34px" height="33px" xmlns="http://www.w3.org/2000/svg">
  <g transform="matrix(1 0 0 1 -355 -259 )">
    <path d="M 3.08125 0  L 30.91875 0  C 31.3260416666667 0  31.715625 0.0654329147389299  32.0875 0.19629874421679  C 32.671875 0.38532716457369  33.13671875 0.683410442828815  33.48203125 1.09054857898215  C 33.82734375 1.49768671513549  34 1.94844679444811  34 2.44282881692003  L 34 30.55717118308  C 34 31.0515532055519  33.82734375 31.5023132848645  33.48203125 31.9094514210178  C 33.13671875 32.3165895571712  32.671875 32.6146728354263  32.0875 32.8037012557832  C 31.7510416666667 32.9200264375413  31.3614583333333 32.9781890284204  30.91875 32.9781890284204  C 30.06875 32.9781890284204  29.3338541666667 32.7455386649042  28.7140625 32.2802379378718  L 17 23.0323859881031  L 5.2859375 32.2802379378718  C 4.6484375 32.7600793126239  3.91354166666667 33  3.08125 33  C 2.67395833333333 33  2.284375 32.9345670852611  1.9125 32.8037012557832  C 1.328125 32.6146728354263  0.86328125 32.3165895571712  0.51796875 31.9094514210178  C 0.17265625 31.5023132848645  0 31.0515532055519  0 30.55717118308  L 0 2.44282881692003  C 0 1.94844679444811  0.17265625 1.49768671513549  0.51796875 1.09054857898215  C 0.86328125 0.683410442828815  1.328125 0.38532716457369  1.9125 0.19629874421679  C 2.284375 0.0654329147389299  2.67395833333333 0  3.08125 0  Z " fill-rule="nonzero" fill="#0eac6d" stroke="none" transform="matrix(1 0 0 1 355 259 )" />
  </g>
</svg>