<?xml version="1.0" encoding="utf-8"?>
<svg version="1.1" xmlns:xlink="http://www.w3.org/1999/xlink" width="55px" height="53px" xmlns="http://www.w3.org/2000/svg">
  <g transform="matrix(1 0 0 1 -571 -247 )">
    <path d="M 17 38.1529017857143  L 17 48.2678571428571  L 25.8823529411765 42.5892857142857  L 25.8823529411765 33.3024553571429  L 17 38.1529017857143  Z M 4.34742647058824 29.7237723214286  L 14.5588235294118 34.8404017857143  L 24.7702205882353 29.7237723214286  L 14.5588235294118 24.6071428571429  L 4.34742647058824 29.7237723214286  Z M 42 38.1529017857143  L 42 48.2678571428571  L 51.7647058823529 42.5892857142857  L 51.7647058823529 33.3024553571429  L 42 38.1529017857143  Z M 30.2297794117647 29.7237723214286  L 40.4411764705882 34.8404017857143  L 50.6525735294118 29.7237723214286  L 40.4411764705882 24.6071428571429  L 30.2297794117647 29.7237723214286  Z M 29.1176470588235 18.2779017857143  L 29.1176470588235 26.1746651785714  L 38.8235294117647 21.2946428571429  L 38.8235294117647 13.4274553571429  L 29.1176470588235 18.2779017857143  Z M 16.3534007352941 9.37555803571428  L 27.5 14.9654017857143  L 38.6465992647059 9.37555803571428  L 27.5 3.78571428571428  L 16.3534007352941 9.37555803571428  Z M 54.4692095588235 28.2154017857143  C 54.8230698529412 28.8463541666667  55 29.5364583333333  55 30.2857142857143  L 55 42.5892857142857  C 55 43.2991071428571  54.8399203431373 43.9596354166667  54.5197610294118 44.5708705357143  C 54.1996017156863 45.1821056547619  53.7614889705882 45.6454613095238  53.2054227941177 45.9609375  L 41.8818933823529 52.5859375  C 41.460631127451 52.8619791666667  40.9803921568627 53  40.4411764705882 53  C 39.9019607843137 53  39.4217218137255 52.8619791666667  39.0004595588235 52.5859375  L 27.6769301470588 45.9609375  C 27.6095281862745 45.9215029761905  27.5505514705882 45.8820684523809  27.5 45.8426339285714  C 27.4662990196078 45.8820684523809  27.4073223039216 45.9215029761905  27.3230698529412 45.9609375  L 15.9995404411765 52.5859375  C 15.5782781862745 52.8619791666667  15.0980392156863 53  14.5588235294118 53  C 14.0196078431373 53  13.539368872549 52.8619791666667  13.1181066176471 52.5859375  L 1.79457720588235 45.9609375  C 1.23851102941176 45.6454613095238  0.800398284313726 45.1821056547619  0.480238970588235 44.5708705357143  C 0.160079656862745 43.9596354166667  0 43.2991071428571  0 42.5892857142857  L 0 30.2857142857143  C 0 29.5364583333333  0.181142769607843 28.8463541666667  0.543428308823529 28.2154017857143  C 0.905713848039216 27.5844494047619  1.38174019607843 27.1112351190476  1.97150735294118 26.7957589285714  L 13 21.2946428571429  L 13 9.46428571428572  C 12.9411764705882 8.71502976190476  13.1223192401961 8.02492559523809  13.4846047794118 7.39397321428572  C 13.8468903186275 6.76302083333333  14.3229166666667 6.28980654761904  14.9126838235294 5.97433035714286  L 26.2362132352941 0.295758928571426  C 26.6237745098039 0.0985863095238165  27.0450367647059 0  27.5 0  C 27.9549632352941 0  28.3762254901961 0.0985863095238165  28.7637867647059 0.295758928571426  L 40.0873161764706 5.97433035714286  C 40.6770833333333 6.28980654761904  41.1531096813725 6.76302083333333  41.5153952205882 7.39397321428572  C 41.8776807598039 8.02492559523809  42.0588235294118 8.71502976190476  42 9.46428571428572  L 42 21.2946428571429  L 53.0284926470588 26.7957589285714  C 53.6351102941177 27.1112351190476  54.1153492647059 27.5844494047619  54.4692095588235 28.2154017857143  Z " fill-rule="nonzero" fill="#27a59a" stroke="none" transform="matrix(1 0 0 1 571 247 )" />
  </g>
</svg>