<?xml version="1.0" encoding="utf-8"?>
<svg version="1.1" xmlns:xlink="http://www.w3.org/1999/xlink" width="122px" height="38px" xmlns="http://www.w3.org/2000/svg">
  <defs>
    <mask fill="white" id="clip428">
      <path d="M 106.75 0  L 106.75000102873 0.365889656510267  C 115.543350702181 2.08450161199902  122 9.66468535747338  122 19  C 122 28.3353146425266  115.543350702181 35.915498388001  106.75 37.6341103380783  L 106.75 38  L 102.937499994479 38  L 0 38  C 0 38  11.4375 29.64  11.4375 19  C 11.4375 8.36  0 0  0 0  L 102.937499994479 0  L 106.75 0  Z " fill-rule="evenodd" />
    </mask>
  </defs>
  <g transform="matrix(1 0 0 1 -82 -1032 )">
    <path d="M 106.75 0  L 106.75000102873 0.365889656510267  C 115.543350702181 2.08450161199902  122 9.66468535747338  122 19  C 122 28.3353146425266  115.543350702181 35.915498388001  106.75 37.6341103380783  L 106.75 38  L 102.937499994479 38  L 0 38  C 0 38  11.4375 29.64  11.4375 19  C 11.4375 8.36  0 0  0 0  L 102.937499994479 0  L 106.75 0  Z " fill-rule="nonzero" fill="#1f4fb1" stroke="none" transform="matrix(1 0 0 1 82 1032 )" />
    <path d="M 106.75 0  L 106.75000102873 0.365889656510267  C 115.543350702181 2.08450161199902  122 9.66468535747338  122 19  C 122 28.3353146425266  115.543350702181 35.915498388001  106.75 37.6341103380783  L 106.75 38  L 102.937499994479 38  L 0 38  C 0 38  11.4375 29.64  11.4375 19  C 11.4375 8.36  0 0  0 0  L 102.937499994479 0  L 106.75 0  Z " stroke-width="2" stroke="#797979" fill="none" transform="matrix(1 0 0 1 82 1032 )" mask="url(#clip428)" />
  </g>
</svg>