<?xml version="1.0" encoding="utf-8"?>
<svg version="1.1" xmlns:xlink="http://www.w3.org/1999/xlink" width="38px" height="38px" xmlns="http://www.w3.org/2000/svg">
  <defs>
    <mask fill="white" id="clip429">
      <path d="M 0 19  C 0 8.3599999999999  8.36000000000001 0  19 0  C 29.64 0  38 8.3599999999999  38 19  C 38 29.6400000000001  29.64 38  19 38  C 16.6547281904443 38  14.4202304113807 37.5938285548627  12.3616182444991 36.846597246278  C 5.08074431583555 34.2037988402062  0 27.2947281904444  0 19  Z " fill-rule="evenodd" />
    </mask>
  </defs>
  <g transform="matrix(1 0 0 1 -615 -1033 )">
    <path d="M 0 19  C 0 8.3599999999999  8.36000000000001 0  19 0  C 29.64 0  38 8.3599999999999  38 19  C 38 29.6400000000001  29.64 38  19 38  C 16.6547281904443 38  14.4202304113807 37.5938285548627  12.3616182444991 36.846597246278  C 5.08074431583555 34.2037988402062  0 27.2947281904444  0 19  Z " fill-rule="nonzero" fill="#1f4fb1" stroke="none" transform="matrix(1 0 0 1 615 1033 )" />
    <path d="M 0 19  C 0 8.3599999999999  8.36000000000001 0  19 0  C 29.64 0  38 8.3599999999999  38 19  C 38 29.6400000000001  29.64 38  19 38  C 16.6547281904443 38  14.4202304113807 37.5938285548627  12.3616182444991 36.846597246278  C 5.08074431583555 34.2037988402062  0 27.2947281904444  0 19  Z " stroke-width="2" stroke="#797979" fill="none" transform="matrix(1 0 0 1 615 1033 )" mask="url(#clip429)" />
  </g>
</svg>