<?xml version="1.0" encoding="utf-8"?>
<svg version="1.1" xmlns:xlink="http://www.w3.org/1999/xlink" width="38px" height="32px" xmlns="http://www.w3.org/2000/svg">
  <g transform="matrix(1 0 0 1 -821 -9 )">
    <path d="M 31.810625 28.909140625  C 31.7723046875 28.772734375  31.7328515625 28.654921875  31.695 28.54265625  C 31.5792578125 28.198203125  31.47875 27.8995703125  31.47875 27.318671875  C 31.47875 26.8813671875  31.605 26.7894140625  31.93609375 26.549609375  C 32.1358203125 26.4048828125  32.4222265625 26.1969140625  32.8169140625 25.787890625  C 33.9355078125 24.6298828125  34.6135546875 23.8443359375  35.0080859375 22.946171875  C 35.4015234375 22.050078125  35.5191796875 21.0259765625  35.5191796875 19.387265625  C 35.5191796875 17.5208203125  34.3580078125 15.6688671875  32.59078125 14.283984375  C 30.824375 12.9004296875  28.4555859375 11.985390625  26.0306640625 11.985390625  C 23.4746875 11.985390625  21.4016796875 12.7714453125  19.865390625 13.9948828125  C 18.565078125 15.03078125  17.647109375 16.38109375  17.14515625 17.8334375  C 16.6434375 19.28515625  16.5562109375 20.8384765625  16.9154296875 22.2816015625  C 17.2923046875 23.7958203125  18.162578125 25.1910546875  19.561640625 26.2215234375  C 20.80328125 27.1363671875  22.268671875 27.81890625  23.8248828125 28.16953125  C 25.28375 28.4985546875  26.8240234375 28.53609375  28.336015625 28.200546875  C 30.2302734375 27.780390625  30.4101171875 27.9546875  30.7688671875 28.304375  C 30.9483984375 28.4791796875  31.1807421875 28.70546875  31.810625 28.909140625  Z M 7.115703125 20.1796875  C 7.11578125 20.97875  6.96359375 21.3976171875  6.81140625 21.817109375  C 6.7105078125 22.094921875  6.6090625 22.373515625  6.5576171875 22.7765234375  C 6.9917578125 22.6423046875  7.376484375 22.415859375  7.757421875 22.191796875  C 8.5089453125 21.74921875  9.24921875 21.3137890625  10.3599609375 21.5362890625  C 11.2471484375 21.7142578125  11.9011328125 21.8378125  12.5940625 21.9165234375  C 13.2401953125 21.99  13.9233984375 22.0246484375  14.866328125 22.0287890625  C 14.6255859375 21.412421875  14.5390625 20.6750390625  14.555859375 19.924609375  C 14.57828125 18.9171875  14.7872265625 17.880390625  15.0558984375 17.0803515625  C 15.7738671875 14.9466796875  16.6738671875 14.11546875  18.030625 12.8626953125  L 18.1055078125 12.7934375  C 18.272890625 12.6391015625  18.3705078125 12.549765625  18.4746875 12.465625  C 18.5744140625 12.384375  18.6831640625 12.3066015625  18.874375 12.1728515625  C 19.816640625 11.5141015625  20.8041796875 11.0036328125  21.8847265625 10.6581640625  C 22.9202734375 10.3270703125  24.0413671875 10.1469140625  25.28875 10.132265625  C 25.111640625 9.40863281250001  24.8543359375 8.72937500000001  24.529296875 8.09789062500001  C 23.33265625 5.77117187500001  21.21 4.08164062500001  18.73828125 3.12000000000001  C 16.261171875 2.15671875000001  13.4344140625 1.92359375000001  10.8344921875 2.51140625000001  C 9.8705078125 2.72925781250001  8.937890625 3.06042968750001  8.0667578125 3.50847656250001  C 6.1924609375 4.47253906250001  4.774375 5.71730468750001  3.811796875 7.11214843750001  C 2.888671875 8.44953125000001  2.382890625 9.92707031250001  2.293359375 11.4285546875  C 2.203984375 12.9304296875  2.53015625 14.4590625  3.2703125 15.898125  C 4.0608984375 17.435546875  5.3248046875 18.8724609375  7.0578125 20.0684765625  L 7.115703125 20.108515625  L 7.115703125 20.1796875  Z M 1.80015625 17.2110546875  C 0.892617187499999 15.555703125  0.3150390625 13.641640625  0.3150390625 11.8513671875  C 0.3150390625 10.3958203125  0.773046875 8.8170703125  1.5023828125 7.37234375  C 2.273828125 5.84421875  3.351484375 4.4616796875  4.5133203125 3.5298046875  C 7.1755859375 1.39359375  10.24328125 0.291015625000003  13.344921875 0.195351562500003  C 16.48671875 0.0982031250000031  19.66328125 1.0336328125  22.48859375 2.97203125  C 23.702734375 3.804375  24.633828125 4.711015625  25.3701171875 5.7441796875  C 26.105078125 6.77609375  26.64515625 7.933828125  27.0775390625 9.270546875  C 27.3438671875 10.0916015625  27.42671875 10.1005859375  27.9219140625 10.153046875  C 28.102578125 10.1721875  28.33140625 10.1966796875  28.6291015625 10.2557421875  C 29.6401953125 10.4566796875  30.656796875 10.795078125  31.60109375 11.2541015625  C 32.5049609375 11.6933984375  33.344296875 12.2443359375  34.0511328125 12.8928515625  C 34.5474609375 13.34828125  35.0101953125 13.7996484375  35.42921875 14.2940625  C 35.8496875 14.7905859375  36.223203125 15.3275390625  36.537265625 15.9500390625  C 37.3354296875 17.5323828125  37.709609375 18.9931640625  37.65328125 20.443125  C 37.5969921875 21.8927734375  37.1097265625 23.3271484375  36.1867578125 24.8555078125  C 35.883671875 25.3570703125  35.376875 25.985390625  34.831875 26.5672265625  C 34.3079296875 27.1271484375  33.74640625 27.6466796875  33.295078125 27.9715234375  C 33.468125 28.7138671875  33.6592578125 29.2358984375  33.81078125 29.64953125  C 34.11625 30.4845703125  34.270234375 30.90484375  33.8400390625 31.7432421875  L 33.79984375 31.821640625  L 33.7145703125 31.814296875  C 32.99625 31.7526171875  32.5475 31.463359375  32.05265625 31.1448046875  L 31.8888671875 31.03984375  C 31.6475443458977 30.8869146099956  31.4016922475347 30.7409248645204  31.151640625 30.6023828125  C 30.9181640625 30.4726171875  30.6698046875 30.34171875  30.3978515625 30.1987890625  C 29.73296875 29.8492578125  29.7134375 29.8543359375  29.153046875 30.009375  C 29.0304296875 30.0432421875  28.883359375 30.0841015625  28.678046875 30.13515625  C 27.4297265625 30.4463671875  26.9483984375 30.4414453125  25.9443359375 30.43078125  C 25.763359375 30.4288671875  25.5621875 30.4267578125  25.260859375 30.4267578125  C 23.244765625 30.4267578125  20.940703125 29.54453125  19.0530859375 28.2472265625  C 17.221953125 26.9888671875  15.7762890625 25.3348828125  15.3546484375 23.70984375  C 14.5391015625 23.8906640625  13.70765625 23.9313671875  12.8858984375 23.8863671875  C 12.0258984375 23.8396484375  11.17578125 23.698125  10.365390625 23.525859375  C 9.08496093750001 23.25328125  8.06164062500001 23.9216796875  7.08484375 24.55984375  C 6.45003906250001 24.97453125  5.83296875000001 25.3775390625  5.16250000000001 25.5230078125  C 4.58230468750001 25.648984375  4.30531250000001 25.4516015625  4.22000000000001 25.057890625  C 4.09214843750001 24.4694921875  4.47738281250001 23.4116796875  4.83945312500001 22.4176171875  C 5.02183593750001 21.91703125  5.198671875 21.431875  5.29718750000001 21.0417578125  C 3.96332031250001 20.282734375  2.71332031250001 18.876328125  1.80015625000001 17.2113671875  Z M 17.6412109375 10.32375  C 17.195 10.32375  16.7191796875 10.1103125  16.37515625 9.716328125  C 16.078984375 9.3776171875  15.8795703125 8.905  15.8795703125 8.3207421875  C 15.8795703125 7.9837890625  16.1260546875 7.6233203125  16.46828125 7.3489453125  C 16.8105078125 7.0748046875  17.2543359375 6.880234375  17.6412109375 6.880234375  C 18.5546484375 6.880234375  19.1251171875 7.310625  19.374453125 7.866484375  C 19.473515625 8.086796875  19.52125 8.3278125  19.5193359375 8.569609375  C 19.5173981959468 8.81353031254745  19.4654926922676 9.05395224467627  19.3668359375 9.276484375  C 19.10703125 9.8614453125  18.5215625 10.32375  17.6412109375 10.32375  Z M 9.2659765625 10.32375  C 8.819765625 10.32375  8.34375 10.110546875  7.9996875 9.7166015625  C 7.70375 9.3776171875  7.5041015625 8.905234375  7.5041015625 8.32078125  C 7.5041015625 7.983828125  7.7505859375 7.623359375  8.093046875 7.348984375  C 8.435 7.07484375  8.8788671875 6.8802734375  9.2659765625 6.8802734375  C 10.16828125 6.8802734375  10.7302734375 7.309453125  10.97609375 7.86484375  C 11.073671875 8.085390625  11.1207421875 8.326484375  11.118828125 8.567734375  C 11.1168578787139 8.81079395633892  11.0657139872177 9.05094037125451  10.9684765625 9.2737109375  C 10.711875 9.859765625  10.13328125 10.32375  9.2659765625 10.32375  Z M 23.979453125 18.90984375  C 23.9798828125 19.1067578125  23.9387109375 19.30328125  23.855078125 19.48171875  C 23.649921875 19.9191796875  23.1932421875 20.2544140625  22.4719140625 20.2544140625  C 21.7387890625 20.2544140625  21.2984765625 19.9188671875  21.1073046875 19.4805859375  L 21.2192578125 19.42859375  L 21.1073046875 19.4801171875  C 21.02859375 19.299453125  20.993125 19.101015625  20.997578125 18.90203125  C 21.00203125 18.7042578125  21.04671875 18.5049609375  21.1265625 18.322734375  C 21.337734375 17.8415625  21.7978125 17.462265625  22.4467578125 17.4729296875  C 23.167109375 17.484375  23.6435546875 17.8609375  23.855078125 18.332265625  C 23.9365340286349 18.513954891331  23.9789076372964 18.7107313290412  23.979453125 18.90984375  Z M 29.0358984375 20.260078125  C 28.829296875 20.2642578125  28.623984375 20.2307421875  28.4379296875 20.1558203125  C 27.978046875 19.9705859375  27.629453125 19.5396484375  27.629453125 18.8137109375  C 27.629453125 18.1679296875  27.9740625 17.789921875  28.43078125 17.628671875  C 28.614453125 17.5641015625  28.8172265625 17.53546875  29.0221875 17.5398046875  C 29.2267620712864 17.5443043133273  29.429439406228 17.5801235966362  29.6231640625 17.646015625  C 30.1652734375 17.8303515625  30.6057421875 18.245078125  30.6057421875 18.81375  C 30.6057421875 19.464296875  30.174453125 19.930546875  29.64078125 20.1390234375  C 29.4485546875 20.2139453125  29.241015625 20.2557421875  29.0358984375 20.260078125  Z " fill-rule="nonzero" fill="#ffffff" stroke="none" transform="matrix(1 0 0 1 821 9 )" />
  </g>
</svg>