<?xml version="1.0" encoding="utf-8"?>
<svg version="1.1" xmlns:xlink="http://www.w3.org/1999/xlink" width="113px" height="127px" xmlns="http://www.w3.org/2000/svg">
  <defs>
    <mask fill="white" id="clip430">
      <path d="M 113 93.4528301886792  L 112.336679243289 93.4519979723211  L 56.5 127  L 0.664752056830486 93.4528301886792  L 0 93.4528301886792  L 0 93.0534590905214  L 0 33.9465409056598  L 0 33.5471698113208  L 0.664751600260402 33.5471423429171  L 56.5 0  L 112.336678770912 33.5471698113208  L 113 33.5471698113208  L 113 33.9465409094786  L 113 93.0534590943402  L 113 93.4528301886792  Z " fill-rule="evenodd" />
    </mask>
  </defs>
  <g transform="matrix(1 0 0 1 -170 -160 )">
    <path d="M 113 93.4528301886792  L 112.336679243289 93.4519979723211  L 56.5 127  L 0.664752056830486 93.4528301886792  L 0 93.4528301886792  L 0 93.0534590905214  L 0 33.9465409056598  L 0 33.5471698113208  L 0.664751600260402 33.5471423429171  L 56.5 0  L 112.336678770912 33.5471698113208  L 113 33.5471698113208  L 113 33.9465409094786  L 113 93.0534590943402  L 113 93.4528301886792  Z " fill-rule="nonzero" fill="#42a5f8" stroke="none" transform="matrix(1 0 0 1 170 160 )" />
    <path d="M 113 93.4528301886792  L 112.336679243289 93.4519979723211  L 56.5 127  L 0.664752056830486 93.4528301886792  L 0 93.4528301886792  L 0 93.0534590905214  L 0 33.9465409056598  L 0 33.5471698113208  L 0.664751600260402 33.5471423429171  L 56.5 0  L 112.336678770912 33.5471698113208  L 113 33.5471698113208  L 113 33.9465409094786  L 113 93.0534590943402  L 113 93.4528301886792  Z " stroke-width="2" stroke="#797979" fill="none" transform="matrix(1 0 0 1 170 160 )" mask="url(#clip430)" />
  </g>
</svg>